<?xml version="1.0" encoding="utf-8" ?>
<svg xmlns="http://www.w3.org/2000/svg" xmlns:xlink="http://www.w3.org/1999/xlink" width="512" height="512">
	<path fill="#00181B" transform="scale(0.8 0.8)" d="M159.212 90.1742L251.347 90.0118C297.113 90.0374 306.952 98.9448 336.808 128.816L393.768 186.093C398.447 190.781 403.505 195.34 407.454 200.665C415.48 211.49 413.607 227.06 402.312 234.873L401.973 235.103C388.854 244.253 378.358 236.736 368.845 227.584L299.87 158.75C293.144 151.978 286.601 144.865 277.983 140.529L277.673 140.401C267.119 136.067 255.726 137.148 244.583 137.143L177.703 137.144C168.717 137.146 160.792 136.351 152.331 139.914C122.317 152.556 119.299 185.291 140.063 207.913C145.364 213.689 151.893 218.549 155.015 225.982C163.468 246.11 144.427 265.625 126.119 257.468L125.625 257.242C115.928 252.861 99.7555 234.275 93.5279 225.235C56.5622 171.579 93.9851 95.6535 159.212 90.1742Z"/>
	<path fill="#00181B" transform="scale(0.8 0.8)" d="M447.046 91.4098C479.147 92.4899 506.823 119.406 516.577 148.596C521.905 164.54 521.882 181.137 517.923 197.454C512.017 221.791 498.562 232.545 481.814 249.346L359.602 372.516C340.99 390.925 318.801 402.688 292.126 402.471C265.941 402.259 250.613 393.768 233.076 376.291L217.452 360.535C208.581 351.391 194.963 343.9 198.004 328.925L198.112 328.438C201.277 313.691 218.125 303.885 232.292 310.781C237.211 313.176 241.256 317.584 244.958 321.52L259.328 336.867C263.282 341.097 267.216 345.707 271.971 349.061C282.95 356.805 299.139 357.133 310.645 350.44C318.043 346.136 323.644 339.376 329.664 333.413L453.874 209.175C457.517 205.598 461.426 202.169 464.767 198.309C480.056 180.649 474.222 148.94 451.421 140.52C444.743 138.054 437.902 137.699 432.256 132.83C415.41 118.302 423.656 92.5778 447.046 91.4098Z"/>
	<path fill="#00181B" transform="scale(0.8 0.8)" d="M266.502 171.361C283.933 168.13 300.384 191.818 288.069 208.441C283.446 214.68 276.966 220.358 271.483 225.853L147.781 349.608C142.129 355.247 135.231 361.059 130.996 367.831C116.57 390.896 135.206 423.228 160.632 427.868C167.238 429.074 174.888 428.328 181.627 428.323L367.96 427.865C365.369 425.196 362.77 415.496 362.751 412.012C362.661 395.374 381.32 383.084 396.078 391.174C402.771 394.843 408.509 401.82 413.883 407.203L434.504 428.08C437.443 428.528 440.577 428.328 443.553 428.333L474.645 428.397C478.281 428.412 482.076 428.65 485.674 428.035C511.087 423.694 525.174 393.689 509.31 372.656C505.484 367.583 500.63 363.415 496.073 359.029L480.315 343.463C470.738 334.166 457.075 324.505 460.451 309.238C463.223 296.702 477.735 288.707 489.897 291.445L490.312 291.545C500.097 293.819 509.558 306.679 516.258 313.693L541.167 338.973L546.161 344.157C558.845 358.7 564.643 380.329 563.291 399.339C560.519 438.34 527.655 471.35 488.713 474.24C484.46 474.555 480.108 474.374 475.844 474.376L444.877 474.533C439.401 474.836 440.032 475.988 436.211 479.881L413.074 503.502C409.104 507.602 405.299 512.241 400.981 515.961C379.32 534.621 339.498 504.709 375.258 474.911C368.736 473.945 361.724 474.393 355.137 474.387L177.969 474.365C168.611 474.36 159.555 474.415 150.323 472.595C88.6539 460.434 57.8585 385.149 95.0381 334.756C102.982 323.988 113.281 315.066 122.716 305.646L239.907 189.215C247.985 181.107 254.49 173.153 266.502 171.361Z"/>
</svg>
